<svg id="Layer_5" enable-background="new 0 0 64 64" height="512" viewBox="0 0 64 64" width="512" xmlns="http://www.w3.org/2000/svg"><g><g><g><path d="m32 39c-1.028 0-1.938-.655-2.265-1.631l-1.456-4.369h-14.279c-2.757 0-5-2.243-5-5v-22c0-2.757 2.243-5 5-5h36c2.757 0 5 2.243 5 5v22c0 2.757-2.243 5-5 5h-14.279l-1.456 4.368c-.327.977-1.237 1.632-2.265 1.632z" fill="#f0bc5e"/></g></g><g><path d="m57 41h-50v-24h2v-2h-2c-1.103 0-2 .897-2 2v24c0 1.103.897 2 2 2h50c1.103 0 2-.897 2-2v-24c0-1.103-.897-2-2-2h-2v2h2z"/><path d="m58 11h-3v2h3c1.654 0 3 1.346 3 3v30c0 1.654-1.346 3-3 3h-52c-1.654 0-3-1.346-3-3v-30c0-1.654 1.346-3 3-3h3v-2h-3c-2.757 0-5 2.243-5 5v30c0 2.757 2.243 5 5 5h15.963c-.168 1.595-.997 3.041-2.296 4h-2.667c-1.654 0-3 1.346-3 3v2c0 1.654 1.346 3 3 3h30c1.654 0 3-1.346 3-3v-2c0-1.654-1.346-3-3-3h-2.666c-1.299-.959-2.128-2.405-2.296-4h15.962c2.757 0 5-2.243 5-5v-30c0-2.757-2.243-5-5-5zm-10 47v2c0 .552-.448 1-1 1h-30c-.552 0-1-.448-1-1v-2c0-.552.448-1 1-1h30c.552 0 1 .448 1 1zm-6.471-3h-19.058c.858-1.155 1.378-2.536 1.492-4h16.075c.114 1.464.634 2.845 1.491 4z"/><path d="m55 45h2v2h-2z"/><path d="m51 45h2v2h-2z"/><path d="m47 45h2v2h-2z"/><path d="m20 25h2v-2h2v-2h-2v-12h-2.594l-6.406 11.745v2.255h7zm-4.861-4 4.861-8.912v8.912z"/><path d="m47 25h2v-2h2v-2h-2v-12h-2.594l-6.406 11.745v2.255h7zm-4.861-4 4.861-8.912v8.912z"/><path d="m27 22c0 1.654 1.346 3 3 3h4c1.654 0 3-1.346 3-3v-.586c1.29-1.316 2-3.054 2-4.899v-.515c0-3.859-3.141-7-7-7s-7 3.141-7 7v.515c0 1.846.71 3.583 2 4.899zm0-6c0-2.757 2.243-5 5-5s5 2.243 5 5v.515c0 1.336-.521 2.592-1.465 3.536l-.535.535v1.414c0 .552-.448 1-1 1h-1v-2h-2v2h-1c-.552 0-1-.448-1-1v-1.414l-.535-.535c-.944-.945-1.465-2.2-1.465-3.536z"/><circle cx="30" cy="15" r="1"/><circle cx="34" cy="15" r="1"/><path d="m13 5h2v2h-2z"/><path d="m21 5h2v2h-2z"/><path d="m17 5h2v2h-2z"/><path d="m41 27h2v2h-2z"/><path d="m49 27h2v2h-2z"/><path d="m45 27h2v2h-2z"/></g></g></svg>