<svg width="230" height="146" viewBox="0 0 230 146" fill="none" xmlns="http://www.w3.org/2000/svg">
    <path d="M104.628 5.2L106.523 5.83895L107.412 3.2H104.628V5.2ZM89.5235 50V52H90.9598L91.4187 50.6389L89.5235 50ZM84.5315 50L82.6399 50.6495L83.1036 52H84.5315V50ZM71.4115 11.792L73.3031 11.1425L71.4161 5.64719L69.5209 11.1396L71.4115 11.792ZM58.2275 50V52H59.6531L60.1181 50.6524L58.2275 50ZM53.2995 50L51.4043 50.6389L51.8632 52H53.2995V50ZM38.1955 5.2V3.2H35.4106L36.3003 5.83895L38.1955 5.2ZM43.0595 5.2L44.9556 4.56376L44.498 3.2H43.0595V5.2ZM55.9875 43.728L54.0914 44.3642L55.9553 49.9189L57.8769 44.3839L55.9875 43.728ZM69.3635 5.2V3.2H67.9408L67.4741 4.54405L69.3635 5.2ZM73.7795 5.2L75.6728 4.55535L75.2113 3.2H73.7795V5.2ZM86.9635 43.92L85.0702 44.5646L86.9681 50.1385L88.8577 44.5618L86.9635 43.92ZM100.084 5.2V3.2H98.6495L98.1893 4.55816L100.084 5.2ZM102.732 4.56105L87.6283 49.3611L91.4187 50.6389L106.523 5.83895L102.732 4.56105ZM89.5235 48H84.5315V52H89.5235V48ZM86.4231 49.3505L73.3031 11.1425L69.5199 12.4415L82.6399 50.6495L86.4231 49.3505ZM69.5209 11.1396L56.3369 49.3476L60.1181 50.6524L73.3021 12.4444L69.5209 11.1396ZM58.2275 48H53.2995V52H58.2275V48ZM55.1947 49.3611L40.0907 4.56105L36.3003 5.83895L51.4043 50.6389L55.1947 49.3611ZM38.1955 7.2H43.0595V3.2H38.1955V7.2ZM41.1634 5.83623L54.0914 44.3642L57.8836 43.0918L44.9556 4.56376L41.1634 5.83623ZM57.8769 44.3839L71.2529 5.85594L67.4741 4.54405L54.0981 43.0721L57.8769 44.3839ZM69.3635 7.2H73.7795V3.2H69.3635V7.2ZM71.8862 5.84464L85.0702 44.5646L88.8568 43.2754L75.6728 4.55535L71.8862 5.84464ZM88.8577 44.5618L101.978 5.84184L98.1893 4.55816L85.0693 43.2782L88.8577 44.5618ZM100.084 7.2H104.628V3.2H100.084V7.2ZM141.341 34.576V36.576H143.252L143.338 34.6668L141.341 34.576ZM113.181 34.576V32.576H111.029L111.186 34.722L113.181 34.576ZM117.213 43.088L115.879 44.5785L115.886 44.585L115.894 44.5915L117.213 43.088ZM132.189 45.2L132.955 47.0475L132.974 47.0396L132.992 47.0313L132.189 45.2ZM136.733 41.872L138.242 40.5596L136.743 38.8367L135.233 40.5488L136.733 41.872ZM139.293 44.816L140.829 46.0964L141.919 44.7884L140.802 43.5036L139.293 44.816ZM133.661 48.912L132.894 47.0648L132.881 47.0701L133.661 48.912ZM117.085 48.144L116.101 49.8856L116.118 49.895L116.135 49.904L117.085 48.144ZM110.877 42L109.142 42.9953L109.142 42.9953L110.877 42ZM110.749 24.336L109.002 23.3623L108.995 23.3733L108.989 23.3844L110.749 24.336ZM116.637 18.256L115.638 16.5231L115.631 16.5268L115.625 16.5306L116.637 18.256ZM133.469 18.256L134.48 16.5306L133.469 18.256ZM139.293 24.336L137.533 25.2877L137.54 25.2998L139.293 24.336ZM141.405 33.168L143.402 33.2588L143.405 33.2134V33.168H141.405ZM116.893 23.12L118.263 24.5764L118.264 24.5756L116.893 23.12ZM113.181 31.184L111.189 31.0052L110.993 33.184H113.181V31.184ZM137.053 31.184V33.184H139.24L139.044 31.0052L137.053 31.184ZM133.277 23.12L131.891 24.5622L131.905 24.5761L131.92 24.5896L133.277 23.12ZM141.341 32.576H113.181V36.576H141.341V32.576ZM111.186 34.722C111.477 38.6949 113.03 42.0294 115.879 44.5785L118.546 41.5975C116.531 39.7946 115.396 37.4544 115.175 34.43L111.186 34.722ZM115.894 44.5915C118.744 47.0918 122.307 48.288 126.429 48.288V44.288C123.126 44.288 120.545 43.3509 118.531 41.5845L115.894 44.5915ZM126.429 48.288C128.755 48.288 130.938 47.8835 132.955 47.0475L131.422 43.3525C129.94 43.9672 128.284 44.288 126.429 44.288V48.288ZM132.992 47.0313C135.011 46.145 136.762 44.8609 138.232 43.1952L135.233 40.5488C134.143 41.7844 132.864 42.719 131.385 43.3687L132.992 47.0313ZM135.223 43.1844L137.783 46.1284L140.802 43.5036L138.242 40.5596L135.223 43.1844ZM137.756 43.5356C136.48 45.0668 134.872 46.2438 132.894 47.0648L134.427 50.7592C136.972 49.7029 139.118 48.1492 140.829 46.0964L137.756 43.5356ZM132.881 47.0701C130.936 47.893 128.752 48.32 126.301 48.32V52.32C129.225 52.32 131.948 51.8084 134.44 50.7539L132.881 47.0701ZM126.301 48.32C123.132 48.32 120.394 47.6574 118.034 46.384L116.135 49.904C119.151 51.5319 122.557 52.32 126.301 52.32V48.32ZM118.068 46.4024C115.731 45.0834 113.923 43.2915 112.611 41.0047L109.142 42.9953C110.816 45.9138 113.147 48.2179 116.101 49.8856L118.068 46.4024ZM112.611 41.0047C111.308 38.7332 110.637 36.1381 110.637 33.168H106.637C106.637 36.7685 107.458 40.0615 109.142 42.9953L112.611 41.0047ZM110.637 33.168C110.637 30.1776 111.275 27.5669 112.508 25.2876L108.989 23.3844C107.406 26.3105 106.637 29.5877 106.637 33.168H110.637ZM112.495 25.3097C113.779 23.0061 115.493 21.2444 117.648 19.9814L115.625 16.5306C112.83 18.1689 110.619 20.4605 109.002 23.3623L112.495 25.3097ZM117.635 19.9889C119.827 18.7258 122.294 18.08 125.085 18.08V14.08C121.645 14.08 118.481 14.8849 115.638 16.5231L117.635 19.9889ZM125.085 18.08C127.875 18.08 130.315 18.7258 132.457 19.9814L134.48 16.5306C131.672 14.8848 128.523 14.08 125.085 14.08V18.08ZM132.457 19.9814C134.606 21.2412 136.294 22.9957 137.533 25.2876L141.052 23.3844C139.475 20.471 137.28 18.1721 134.48 16.5306L132.457 19.9814ZM137.54 25.2998C138.764 27.5256 139.405 30.1295 139.405 33.168H143.405C143.405 29.5505 142.637 26.2664 141.045 23.3722L137.54 25.2998ZM139.407 33.0772L139.343 34.4852L143.338 34.6668L143.402 33.2588L139.407 33.0772ZM125.085 17.984C121.368 17.984 118.136 19.2003 115.521 21.6644L118.264 24.5756C120.087 22.8583 122.316 21.984 125.085 21.984V17.984ZM115.522 21.6636C112.947 24.0874 111.525 27.2516 111.189 31.0052L115.172 31.3628C115.433 28.4604 116.487 26.2486 118.263 24.5764L115.522 21.6636ZM113.181 33.184H137.053V29.184H113.181V33.184ZM139.044 31.0052C138.707 27.24 137.256 24.0718 134.633 21.6504L131.92 24.5896C133.734 26.2642 134.801 28.472 135.061 31.3628L139.044 31.0052ZM134.662 21.6778C132.079 19.1959 128.836 17.984 125.085 17.984V21.984C127.903 21.984 130.122 22.8628 131.891 24.5622L134.662 21.6778ZM178.813 18.256L177.827 19.996L177.839 20.0023L177.85 20.0084L178.813 18.256ZM184.829 24.272L186.576 23.2983L186.576 23.2983L184.829 24.272ZM184.829 42.064L186.576 43.0377L186.576 43.0377L184.829 42.064ZM178.813 48.144L177.827 46.404L177.827 46.404L178.813 48.144ZM162.621 48.528L161.673 50.2889L161.68 50.2927L161.687 50.2964L162.621 48.528ZM157.245 43.344L158.958 42.3103L155.245 36.162V43.344H157.245ZM157.245 50V52H159.245V50H157.245ZM152.893 50H150.893V52H152.893V50ZM152.893 2.512V0.511997H150.893V2.512H152.893ZM157.437 2.512H159.437V0.511997H157.437V2.512ZM157.437 22.736H155.437V29.5084L159.117 23.8225L157.437 22.736ZM162.813 17.808L163.722 19.5898L163.729 19.5864L163.735 19.583L162.813 17.808ZM176.317 44.688L177.289 46.4363L177.303 46.4281L177.318 46.4197L176.317 44.688ZM180.797 40.016L179.047 39.0479L179.039 39.0623L179.032 39.0768L180.797 40.016ZM180.797 26.32L179.032 27.2592L179.039 27.2737L179.047 27.2881L180.797 26.32ZM176.317 21.712L175.317 23.4437L175.332 23.4521L175.346 23.4603L176.317 21.712ZM163.453 21.712L164.442 23.4509L164.448 23.4473L164.454 23.4437L163.453 21.712ZM158.973 26.32L157.223 25.3519L157.215 25.3663L157.208 25.3808L158.973 26.32ZM158.973 40.016L157.208 40.9552L157.215 40.9697L157.223 40.9841L158.973 40.016ZM163.453 44.688L162.436 46.4099L162.459 46.4234L162.482 46.4363L163.453 44.688ZM170.237 18.08C173.075 18.08 175.59 18.7282 177.827 19.996L179.8 16.516C176.917 14.8825 173.714 14.08 170.237 14.08V18.08ZM177.85 20.0084C180.074 21.2317 181.811 22.9641 183.083 25.2457L186.576 23.2983C184.947 20.3746 182.673 18.0962 179.777 16.5036L177.85 20.0084ZM183.083 25.2457C184.349 27.5171 185.005 30.1402 185.005 33.168H189.005C189.005 29.5398 188.212 26.2322 186.576 23.2983L183.083 25.2457ZM185.005 33.168C185.005 36.1958 184.349 38.8189 183.083 41.0903L186.576 43.0377C188.212 40.1038 189.005 36.7962 189.005 33.168H185.005ZM183.083 41.0903C181.808 43.3768 180.064 45.1365 177.827 46.404L179.8 49.884C182.683 48.2501 184.95 45.9565 186.576 43.0377L183.083 41.0903ZM177.827 46.404C175.59 47.6718 173.075 48.32 170.237 48.32V52.32C173.714 52.32 176.917 51.5175 179.8 49.884L177.827 46.404ZM170.237 48.32C167.714 48.32 165.501 47.7872 163.556 46.7596L161.687 50.2964C164.265 51.6581 167.129 52.32 170.237 52.32V48.32ZM163.57 46.7671C161.682 45.7504 160.147 44.2806 158.958 42.3103L155.533 44.3777C157.074 46.93 159.124 48.9162 161.673 50.2889L163.57 46.7671ZM155.245 43.344V50H159.245V43.344H155.245ZM157.245 48H152.893V52H157.245V48ZM154.893 50V2.512H150.893V50H154.893ZM152.893 4.512H157.437V0.511997H152.893V4.512ZM155.437 2.512V22.736H159.437V2.512H155.437ZM159.117 23.8225C160.346 21.9233 161.879 20.5294 163.722 19.5898L161.905 16.0262C159.396 17.3053 157.345 19.1967 155.758 21.6495L159.117 23.8225ZM163.735 19.583C165.643 18.5921 167.797 18.08 170.237 18.08V14.08C167.216 14.08 164.421 14.7198 161.892 16.033L163.735 19.583ZM169.917 48.288C172.58 48.288 175.051 47.6793 177.289 46.4363L175.346 42.9397C173.744 43.83 171.948 44.288 169.917 44.288V48.288ZM177.318 46.4197C179.57 45.1183 181.325 43.2827 182.563 40.9552L179.032 39.0768C178.136 40.76 176.905 42.039 175.317 42.9563L177.318 46.4197ZM182.548 40.9841C183.839 38.649 184.461 36.0263 184.461 33.168H180.461C180.461 35.4297 179.974 37.3723 179.047 39.0479L182.548 40.9841ZM184.461 33.168C184.461 30.3097 183.839 27.687 182.548 25.3519L179.047 27.2881C179.974 28.9637 180.461 30.9063 180.461 33.168H184.461ZM182.563 25.3808C181.322 23.047 179.558 21.2244 177.289 19.9637L175.346 23.4603C176.917 24.3329 178.14 25.5823 179.032 27.2592L182.563 25.3808ZM177.318 19.9803C175.076 18.6849 172.594 18.048 169.917 18.048V22.048C171.934 22.048 173.719 22.5205 175.317 23.4437L177.318 19.9803ZM169.917 18.048C167.205 18.048 164.701 18.6816 162.453 19.9803L164.454 23.4437C166.046 22.5237 167.851 22.048 169.917 22.048V18.048ZM162.465 19.9731C160.248 21.2329 158.5 23.045 157.223 25.3519L160.724 27.2881C161.666 25.5843 162.904 24.3244 164.442 23.4509L162.465 19.9731ZM157.208 25.3808C155.969 27.7103 155.373 30.3226 155.373 33.168H159.373C159.373 30.8934 159.845 28.9403 160.739 27.2592L157.208 25.3808ZM155.373 33.168C155.373 36.0134 155.969 38.6257 157.208 40.9552L160.739 39.0768C159.845 37.3957 159.373 35.4426 159.373 33.168H155.373ZM157.223 40.9841C158.496 43.285 160.236 45.1097 162.436 46.4099L164.471 42.9661C162.917 42.0476 161.669 40.7577 160.724 39.0479L157.223 40.9841ZM162.482 46.4363C164.725 47.6823 167.219 48.288 169.917 48.288V44.288C167.837 44.288 166.022 43.827 164.425 42.9397L162.482 46.4363ZM2.10225 86.2V84.2H0.102252V86.2H2.10225ZM32.8863 89.08L31.9505 90.8476L31.9586 90.8519L31.9668 90.8561L32.8863 89.08ZM41.3343 97.016L39.6098 98.0291L39.6154 98.0386L41.3343 97.016ZM41.3343 120.248L43.0531 121.271L43.0587 121.261L41.3343 120.248ZM32.8863 128.184L33.8057 129.96L33.8139 129.956L33.822 129.952L32.8863 128.184ZM2.10225 131H0.102252V133H2.10225V131ZM30.3903 124.6L31.3154 126.373L31.3254 126.368L31.3354 126.363L30.3903 124.6ZM37.2383 118.136L38.958 119.157L38.9648 119.145L37.2383 118.136ZM37.2383 99.128L35.5116 100.137L35.5185 100.149L37.2383 99.128ZM30.3903 92.664L29.4451 94.4266L29.4551 94.4319L29.4651 94.4372L30.3903 92.664ZM6.83825 90.296V88.296H4.83825V90.296H6.83825ZM6.83825 126.904H4.83825V128.904H6.83825V126.904ZM2.10225 88.2H20.3423V84.2H2.10225V88.2ZM20.3423 88.2C24.8026 88.2 28.6537 89.1022 31.9505 90.8476L33.822 87.3124C29.8655 85.2178 25.3539 84.2 20.3423 84.2V88.2ZM31.9668 90.8561C35.2697 92.5659 37.8018 94.9516 39.6098 98.0291L43.0587 96.0029C40.8561 92.2538 37.7561 89.3488 33.8057 87.3039L31.9668 90.8561ZM39.6154 98.0386C41.4171 101.067 42.3423 104.567 42.3423 108.6H46.3423C46.3423 103.929 45.2621 99.7065 43.0531 95.9934L39.6154 98.0386ZM42.3423 108.6C42.3423 112.632 41.4171 116.159 39.6098 119.235L43.0587 121.261C45.262 117.511 46.3423 113.272 46.3423 108.6H42.3423ZM39.6154 119.225C37.8067 122.266 35.2684 124.66 31.9505 126.416L33.822 129.952C37.7574 127.868 40.8512 124.972 43.0531 121.271L39.6154 119.225ZM31.9668 126.408C28.6666 128.116 24.8095 129 20.3423 129V133C25.347 133 29.8526 132.006 33.8057 129.96L31.9668 126.408ZM20.3423 129H2.10225V133H20.3423V129ZM4.10225 131V86.2H0.102252V131H4.10225ZM20.0863 128.904C24.2752 128.904 28.0381 128.083 31.3154 126.373L29.4651 122.827C26.8545 124.189 23.748 124.904 20.0863 124.904V128.904ZM31.3354 126.363C34.5829 124.621 37.1409 122.217 38.958 119.157L35.5185 117.115C34.0929 119.516 32.0856 121.421 29.4451 122.837L31.3354 126.363ZM38.9648 119.145C40.7853 116.031 41.6703 112.497 41.6703 108.6H37.6703C37.6703 111.871 36.9339 114.694 35.5117 117.127L38.9648 119.145ZM41.6703 108.6C41.6703 104.704 40.7855 101.185 38.958 98.1069L35.5185 100.149C36.9337 102.533 37.6703 105.328 37.6703 108.6H41.6703ZM38.9648 98.1186C37.1469 95.009 34.5813 92.5948 31.3154 90.8908L29.4651 94.4372C32.0872 95.8052 34.0869 97.7003 35.5117 100.137L38.9648 98.1186ZM31.3354 90.9014C28.0537 89.1417 24.2836 88.296 20.0863 88.296V92.296C23.7396 92.296 26.8388 93.029 29.4451 94.4266L31.3354 90.9014ZM20.0863 88.296H6.83825V92.296H20.0863V88.296ZM4.83825 90.296V126.904H8.83825V90.296H4.83825ZM6.83825 128.904H20.0863V124.904H6.83825V128.904ZM85.5693 115.576V117.576H87.4804L87.5672 115.667L85.5693 115.576ZM57.4092 115.576V113.576H55.2576L55.4146 115.722L57.4092 115.576ZM61.4412 124.088L60.1077 125.578L60.115 125.585L60.1224 125.592L61.4412 124.088ZM76.4173 126.2L77.1833 128.047L77.2023 128.04L77.2212 128.031L76.4173 126.2ZM80.9613 122.872L82.4705 121.56L80.9722 119.837L79.4616 121.549L80.9613 122.872ZM83.5213 125.816L85.0577 127.096L86.1477 125.788L85.0305 124.504L83.5213 125.816ZM77.8892 129.912L77.1225 128.065L77.11 128.07L77.8892 129.912ZM61.3132 129.144L60.3301 130.886L60.3466 130.895L60.3634 130.904L61.3132 129.144ZM55.1052 123L53.3705 123.995L53.3705 123.995L55.1052 123ZM54.9772 105.336L53.2303 104.362L53.2242 104.373L53.2182 104.384L54.9772 105.336ZM60.8652 99.256L59.8667 97.5231L59.8602 97.5268L59.8538 97.5306L60.8652 99.256ZM77.6973 99.256L78.7087 97.5306L77.6973 99.256ZM83.5213 105.336L81.7621 106.288L81.7688 106.3L83.5213 105.336ZM85.6333 114.168L87.6312 114.259L87.6333 114.213V114.168H85.6333ZM61.1213 104.12L62.492 105.576L62.4929 105.576L61.1213 104.12ZM57.4092 112.184L55.4173 112.005L55.2217 114.184H57.4092V112.184ZM81.2812 112.184V114.184H83.4688L83.2732 112.005L81.2812 112.184ZM77.5053 104.12L76.1196 105.562L76.134 105.576L76.1487 105.59L77.5053 104.12ZM85.5693 113.576H57.4092V117.576H85.5693V113.576ZM55.4146 115.722C55.7053 119.695 57.2587 123.029 60.1077 125.578L62.7748 122.598C60.7598 120.795 59.6252 118.454 59.4039 115.43L55.4146 115.722ZM60.1224 125.592C62.9726 128.092 66.5361 129.288 70.6572 129.288V125.288C67.3544 125.288 64.7739 124.351 62.7601 122.584L60.1224 125.592ZM70.6572 129.288C72.9834 129.288 75.167 128.884 77.1833 128.047L75.6512 124.353C74.1688 124.967 72.5124 125.288 70.6572 125.288V129.288ZM77.2212 128.031C79.2401 127.145 80.9912 125.861 82.4609 124.195L79.4616 121.549C78.3713 122.784 77.0931 123.719 75.6133 124.369L77.2212 128.031ZM79.452 124.184L82.012 127.128L85.0305 124.504L82.4705 121.56L79.452 124.184ZM81.9848 124.536C80.7088 126.067 79.1005 127.244 77.1225 128.065L78.656 131.759C81.2006 130.703 83.347 129.149 85.0577 127.096L81.9848 124.536ZM77.11 128.07C75.1649 128.893 72.9806 129.32 70.5293 129.32V133.32C73.4539 133.32 76.1762 132.808 78.6685 131.754L77.11 128.07ZM70.5293 129.32C67.3607 129.32 64.6227 128.657 62.2631 127.384L60.3634 130.904C63.3798 132.532 66.7858 133.32 70.5293 133.32V129.32ZM62.2964 127.402C59.9601 126.083 58.1521 124.292 56.84 122.005L53.3705 123.995C55.0451 126.914 57.3758 129.218 60.3301 130.886L62.2964 127.402ZM56.84 122.005C55.5367 119.733 54.8652 117.138 54.8652 114.168H50.8652C50.8652 117.769 51.6872 121.062 53.3705 123.995L56.84 122.005ZM54.8652 114.168C54.8652 111.178 55.5033 108.567 56.7363 106.288L53.2182 104.384C51.6352 107.31 50.8652 110.588 50.8652 114.168H54.8652ZM56.7242 106.31C58.0082 104.006 59.7221 102.244 61.8767 100.981L59.8538 97.5306C57.0591 99.1689 54.8476 101.461 53.2303 104.362L56.7242 106.31ZM61.8638 100.989C64.0556 99.7258 66.523 99.08 69.3132 99.08V95.08C65.8742 95.08 62.7095 95.8849 59.8667 97.5231L61.8638 100.989ZM69.3132 99.08C72.1039 99.08 74.544 99.7258 76.6858 100.981L78.7087 97.5306C75.9012 95.8848 72.752 95.08 69.3132 95.08V99.08ZM76.6858 100.981C78.835 102.241 80.5223 103.996 81.7622 106.288L85.2803 104.384C83.7042 101.471 81.5089 99.1721 78.7087 97.5306L76.6858 100.981ZM81.7688 106.3C82.993 108.526 83.6333 111.13 83.6333 114.168H87.6333C87.6333 110.55 86.8655 107.266 85.2737 104.372L81.7688 106.3ZM83.6353 114.077L83.5713 115.485L87.5672 115.667L87.6312 114.259L83.6353 114.077ZM69.3132 98.984C65.5964 98.984 62.3646 100.2 59.7496 102.664L62.4929 105.576C64.3152 103.858 66.5448 102.984 69.3132 102.984V98.984ZM59.7505 102.664C57.1753 105.087 55.7541 108.252 55.4173 112.005L59.4012 112.363C59.6617 109.46 60.7152 107.249 62.492 105.576L59.7505 102.664ZM57.4092 114.184H81.2812V110.184H57.4092V114.184ZM83.2732 112.005C82.9353 108.24 81.485 105.072 78.8618 102.65L76.1487 105.59C77.9628 107.264 79.0298 109.472 79.2893 112.363L83.2732 112.005ZM78.8909 102.678C76.3077 100.196 73.065 98.984 69.3132 98.984V102.984C72.1322 102.984 74.3508 103.863 76.1196 105.562L78.8909 102.678ZM98.2743 130.168L97.6516 132.069L97.6711 132.075L97.6906 132.081L98.2743 130.168ZM92.4503 127.16L90.7138 126.168L89.8895 127.61L91.1563 128.685L92.4503 127.16ZM94.4983 123.576L95.736 122.005L93.9131 120.569L92.7618 122.584L94.4983 123.576ZM99.8103 126.328L99.1664 128.222L99.1835 128.227L99.2007 128.233L99.8103 126.328ZM113.25 125.944L114.337 127.623L114.343 127.619L114.349 127.615L113.25 125.944ZM114.274 118.968L112.941 120.458L112.963 120.478L112.986 120.498L114.274 118.968ZM111.202 117.368L110.609 119.278L110.64 119.288L110.67 119.296L111.202 117.368ZM106.274 116.28L105.906 118.246L105.926 118.249L105.945 118.253L106.274 116.28ZM99.6823 114.744L99.0498 116.641L99.0719 116.649L99.0941 116.656L99.6823 114.744ZM95.3943 111.992L93.9077 113.33L93.9198 113.343L93.9321 113.357L95.3943 111.992ZM97.1863 99.768L95.9724 98.1785L95.9724 98.1785L97.1863 99.768ZM113.506 97.976L112.977 99.9047L112.994 99.9095L113.012 99.914L113.506 97.976ZM118.882 100.216L120.639 101.172L121.513 99.5658L119.992 98.5519L118.882 100.216ZM116.898 103.864L115.76 105.508L117.591 106.776L118.655 104.82L116.898 103.864ZM100.386 102.52L99.2552 100.871L99.244 100.878L99.2329 100.886L100.386 102.52ZM99.4263 109.624L98.0508 111.076L98.0693 111.093L98.0883 111.111L99.4263 109.624ZM102.562 111.352L101.969 113.262L102 113.272L102.03 113.28L102.562 111.352ZM107.682 112.44L108.056 110.475L108.043 110.473L108.03 110.47L107.682 112.44ZM114.146 113.976L113.544 115.883L113.544 115.883L114.146 113.976ZM118.306 116.6L116.842 117.963L116.842 117.963L118.306 116.6ZM116.322 128.76L117.471 130.397L117.477 130.393L116.322 128.76ZM106.146 129.32C103.606 129.32 101.179 128.963 98.8579 128.255L97.6906 132.081C100.404 132.909 103.225 133.32 106.146 133.32V129.32ZM98.8969 128.267C96.5748 127.507 94.8916 126.609 93.7442 125.635L91.1563 128.685C92.8249 130.101 95.0244 131.208 97.6516 132.069L98.8969 128.267ZM94.1867 128.152L96.2347 124.568L92.7618 122.584L90.7138 126.168L94.1867 128.152ZM93.2605 125.147C94.8859 126.428 96.8711 127.441 99.1664 128.222L100.454 124.434C98.4827 123.764 96.9266 122.943 95.736 122.005L93.2605 125.147ZM99.2007 128.233C101.537 128.98 103.961 129.352 106.466 129.352V125.352C104.363 125.352 102.35 125.041 100.42 124.423L99.2007 128.233ZM106.466 129.352C109.663 129.352 112.397 128.878 114.337 127.623L112.164 124.265C111.202 124.887 109.414 125.352 106.466 125.352V129.352ZM114.349 127.615C116.39 126.274 117.49 124.288 117.49 121.848H113.49C113.49 122.907 113.097 123.651 112.152 124.273L114.349 127.615ZM117.49 121.848C117.49 120.13 116.902 118.566 115.563 117.438L112.986 120.498C113.268 120.735 113.49 121.091 113.49 121.848H117.49ZM115.608 117.478C114.529 116.513 113.216 115.849 111.734 115.44L110.67 119.296C111.664 119.57 112.398 119.973 112.941 120.458L115.608 117.478ZM111.795 115.458C110.436 115.036 108.694 114.656 106.603 114.307L105.945 118.253C107.95 118.587 109.494 118.932 110.609 119.278L111.795 115.458ZM106.643 114.314C103.948 113.809 101.833 113.313 100.27 112.832L99.0941 116.656C100.86 117.199 103.139 117.727 105.906 118.246L106.643 114.314ZM100.315 112.847C98.9668 112.397 97.8228 111.663 96.8564 110.627L93.9321 113.357C95.355 114.881 97.0697 115.981 99.0498 116.641L100.315 112.847ZM96.8808 110.654C96.1518 109.844 95.6663 108.605 95.6663 106.68H91.6663C91.6663 109.277 92.3327 111.58 93.9077 113.33L96.8808 110.654ZM95.6663 106.68C95.6663 104.522 96.5209 102.793 98.4001 101.358L95.9724 98.1785C93.1583 100.327 91.6663 103.206 91.6663 106.68H95.6663ZM98.4001 101.358C100.279 99.9226 103.058 99.08 106.978 99.08V95.08C102.536 95.08 98.7866 96.0294 95.9724 98.1785L98.4001 101.358ZM106.978 99.08C108.969 99.08 110.967 99.3529 112.977 99.9047L114.036 96.0473C111.694 95.4044 109.34 95.08 106.978 95.08V99.08ZM113.012 99.914C115.036 100.43 116.603 101.1 117.773 101.88L119.992 98.5519C118.345 97.4543 116.328 96.6313 114 96.038L113.012 99.914ZM117.125 99.2605L115.141 102.908L118.655 104.82L120.639 101.172L117.125 99.2605ZM118.037 102.22C114.884 100.037 111.167 98.984 106.978 98.984V102.984C110.47 102.984 113.366 103.851 115.76 105.508L118.037 102.22ZM106.978 98.984C103.896 98.984 101.227 99.5183 99.2552 100.871L101.517 104.169C102.532 103.474 104.258 102.984 106.978 102.984V98.984ZM99.2329 100.886C97.2933 102.255 96.2103 104.188 96.2103 106.552H100.21C100.21 105.588 100.578 104.833 101.54 104.154L99.2329 100.886ZM96.2103 106.552C96.2103 108.293 96.7818 109.874 98.0508 111.076L100.802 108.172C100.449 107.838 100.21 107.371 100.21 106.552H96.2103ZM98.0883 111.111C99.1826 112.095 100.492 112.803 101.969 113.262L103.155 109.442C102.158 109.133 101.377 108.689 100.764 108.137L98.0883 111.111ZM102.03 113.28C103.356 113.646 105.134 114.021 107.335 114.41L108.03 110.47C105.879 110.091 104.243 109.741 103.094 109.424L102.03 113.28ZM107.308 114.405C109.959 114.91 112.028 115.405 113.544 115.883L114.749 112.069C113.021 111.523 110.781 110.994 108.056 110.475L107.308 114.405ZM113.544 115.883C114.838 116.292 115.927 116.98 116.842 117.963L119.77 115.237C118.381 113.746 116.697 112.684 114.749 112.069L113.544 115.883ZM116.842 117.963C117.56 118.733 118.034 119.899 118.034 121.72H122.034C122.034 119.189 121.357 116.942 119.77 115.237L116.842 117.963ZM118.034 121.72C118.034 123.992 117.131 125.739 115.168 127.127L117.477 130.393C120.463 128.282 122.034 125.336 122.034 121.72H118.034ZM115.173 127.123C113.201 128.507 110.269 129.32 106.146 129.32V133.32C110.727 133.32 114.579 132.426 117.471 130.397L115.173 127.123ZM130.675 97.336V95.336H128.675V97.336H130.675ZM135.219 97.336H137.219V95.336H135.219V97.336ZM135.219 131V133H137.219V131H135.219ZM130.675 131H128.675V133H130.675V131ZM130.611 84.472L129.197 83.0578L129.197 83.0578L130.611 84.472ZM135.347 84.472L133.933 85.8862L133.957 85.9106L133.982 85.9341L135.347 84.472ZM130.675 99.336H135.219V95.336H130.675V99.336ZM133.219 97.336V131H137.219V97.336H133.219ZM135.219 129H130.675V133H135.219V129ZM132.675 131V97.336H128.675V131H132.675ZM132.979 87.976C132.549 87.976 132.275 87.8515 132.025 87.6018L129.197 90.4302C130.227 91.4605 131.532 91.976 132.979 91.976V87.976ZM132.025 87.6018C131.756 87.3326 131.651 87.0715 131.651 86.712H127.651C127.651 88.1445 128.186 89.4194 129.197 90.4302L132.025 87.6018ZM131.651 86.712C131.651 86.4238 131.735 86.1764 132.025 85.8862L129.197 83.0578C128.207 84.0476 127.651 85.2936 127.651 86.712H131.651ZM132.025 85.8862C132.275 85.6365 132.549 85.512 132.979 85.512V81.512C131.532 81.512 130.227 82.0275 129.197 83.0578L132.025 85.8862ZM132.979 85.512C133.409 85.512 133.683 85.6365 133.933 85.8862L136.761 83.0578C135.731 82.0275 134.426 81.512 132.979 81.512V85.512ZM133.982 85.9341C134.229 86.1643 134.307 86.3651 134.307 86.648H138.307C138.307 85.2242 137.745 83.9744 136.711 83.0099L133.982 85.9341ZM134.307 86.648C134.307 87.0782 134.182 87.3521 133.933 87.6018L136.761 90.4302C137.791 89.3999 138.307 88.0951 138.307 86.648H134.307ZM133.933 87.6018C133.683 87.8515 133.409 87.976 132.979 87.976V91.976C134.426 91.976 135.731 91.4605 136.761 90.4302L133.933 87.6018ZM181.27 97.336H183.27V95.336H181.27V97.336ZM177.046 139.576L175.654 138.14L175.643 138.151L175.632 138.162L177.046 139.576ZM155.542 142.328L156.175 140.431L156.166 140.428L156.157 140.425L155.542 142.328ZM148.758 138.552L147.094 137.443L146.149 138.86L147.399 140.019L148.758 138.552ZM151.062 135.096L152.396 133.606L150.677 132.068L149.398 133.987L151.062 135.096ZM156.95 138.488L156.286 140.375L156.297 140.378L156.95 138.488ZM173.718 136.696L172.319 135.267L172.312 135.274L172.304 135.282L173.718 136.696ZM176.726 123.192H178.726V116.531L175.057 122.09L176.726 123.192ZM171.158 128.056L170.291 126.254L170.284 126.257L170.277 126.26L171.158 128.056ZM154.966 127.672L154.002 129.424L154.02 129.434L154.037 129.443L154.966 127.672ZM148.886 121.848L147.153 122.847L147.163 122.864L147.174 122.881L148.886 121.848ZM148.886 104.888L147.174 103.855L147.167 103.866L147.161 103.877L148.886 104.888ZM154.966 99.128L155.907 100.893L155.907 100.893L154.966 99.128ZM171.35 98.808L172.245 97.0191L172.245 97.0191L171.35 98.808ZM176.918 103.8L175.239 104.887L178.918 110.572V103.8H176.918ZM176.918 97.336V95.336H174.918V97.336H176.918ZM170.646 124.152L171.571 125.925L171.586 125.917L171.601 125.909L170.646 124.152ZM175.19 119.736L173.468 118.719L173.46 118.733L173.451 118.748L175.19 119.736ZM175.19 107L173.451 107.988L173.465 108.012L173.479 108.035L175.19 107ZM170.646 102.648L169.675 104.396L169.698 104.409L169.721 104.421L170.646 102.648ZM157.462 102.584L156.537 100.811L156.529 100.815L156.521 100.819L157.462 102.584ZM152.918 106.936L151.196 105.919L151.188 105.933L151.179 105.948L152.918 106.936ZM152.918 119.736L151.179 120.724L151.188 120.739L151.196 120.753L152.918 119.736ZM157.462 124.152L156.491 125.9L156.514 125.913L156.537 125.925L157.462 124.152ZM179.27 97.336V126.904H183.27V97.336H179.27ZM179.27 126.904C179.27 132.329 177.933 135.93 175.654 138.14L178.439 141.012C181.791 137.761 183.27 132.914 183.27 126.904H179.27ZM175.632 138.162C173.371 140.423 169.772 141.736 164.438 141.736V145.736C170.368 145.736 175.175 144.276 178.46 140.99L175.632 138.162ZM164.438 141.736C161.528 141.736 158.777 141.298 156.175 140.431L154.91 144.225C157.94 145.235 161.119 145.736 164.438 145.736V141.736ZM156.157 140.425C153.601 139.599 151.612 138.47 150.118 137.085L147.399 140.019C149.404 141.877 151.937 143.265 154.927 144.231L156.157 140.425ZM150.422 139.661L152.726 136.205L149.398 133.987L147.094 137.443L150.422 139.661ZM149.729 136.586C151.568 138.232 153.766 139.488 156.286 140.375L157.614 136.601C155.527 135.867 153.799 134.861 152.396 133.606L149.729 136.586ZM156.297 140.378C158.86 141.264 161.535 141.704 164.31 141.704V137.704C161.966 137.704 159.733 137.333 157.603 136.598L156.297 140.378ZM164.31 141.704C168.843 141.704 172.599 140.643 175.132 138.11L172.304 135.282C170.826 136.759 168.311 137.704 164.31 137.704V141.704ZM175.117 138.125C177.661 135.636 178.726 131.937 178.726 127.48H174.726C174.726 131.386 173.786 133.831 172.319 135.267L175.117 138.125ZM178.726 127.48V123.192H174.726V127.48H178.726ZM175.057 122.09C173.848 123.922 172.269 125.301 170.291 126.254L172.026 129.858C174.655 128.592 176.788 126.729 178.395 124.294L175.057 122.09ZM170.277 126.26C168.317 127.222 166.106 127.72 163.606 127.72V131.72C166.654 131.72 169.477 131.109 172.039 129.852L170.277 126.26ZM163.606 127.72C160.748 127.72 158.19 127.105 155.895 125.901L154.037 129.443C156.948 130.97 160.15 131.72 163.606 131.72V127.72ZM155.93 125.92C153.675 124.679 151.908 122.985 150.599 120.815L147.174 122.881C148.851 125.661 151.137 127.849 154.002 129.424L155.93 125.92ZM150.619 120.849C149.358 118.662 148.71 116.174 148.71 113.336H144.71C144.71 116.813 145.513 120 147.153 122.847L150.619 120.849ZM148.71 113.336C148.71 110.497 149.359 108.037 150.612 105.899L147.161 103.877C145.513 106.688 144.71 109.86 144.71 113.336H148.71ZM150.599 105.921C151.905 103.757 153.664 102.089 155.907 100.893L154.025 97.3633C151.148 98.8977 148.854 101.07 147.174 103.855L150.599 105.921ZM155.907 100.893C158.149 99.6973 160.7 99.08 163.606 99.08V95.08C160.112 95.08 156.904 95.828 154.025 97.3633L155.907 100.893ZM163.606 99.08C166.189 99.08 168.459 99.5984 170.456 100.597L172.245 97.0191C169.634 95.7136 166.741 95.08 163.606 95.08V99.08ZM170.456 100.597C172.438 101.588 174.024 103.009 175.239 104.887L178.597 102.713C176.997 100.239 174.87 98.332 172.245 97.0191L170.456 100.597ZM178.918 103.8V97.336H174.918V103.8H178.918ZM176.918 99.336H181.27V95.336H176.918V99.336ZM164.054 127.688C166.776 127.688 169.296 127.112 171.571 125.925L169.721 122.379C168.071 123.24 166.196 123.688 164.054 123.688V127.688ZM171.601 125.909C173.88 124.671 175.672 122.937 176.929 120.724L173.451 118.748C172.576 120.289 171.338 121.5 169.691 122.395L171.601 125.909ZM176.912 120.753C178.221 118.539 178.854 116.048 178.854 113.336H174.854C174.854 115.403 174.378 117.178 173.468 118.719L176.912 120.753ZM178.854 113.336C178.854 110.625 178.221 108.147 176.902 105.965L173.479 108.035C174.378 109.523 174.854 111.269 174.854 113.336H178.854ZM176.929 106.012C175.667 103.791 173.866 102.072 171.571 100.875L169.721 104.421C171.352 105.272 172.58 106.454 173.451 107.988L176.929 106.012ZM171.618 100.9C169.364 99.6479 166.825 99.048 164.054 99.048V103.048C166.233 103.048 168.088 103.515 169.675 104.396L171.618 100.9ZM164.054 99.048C161.332 99.048 158.813 99.6235 156.537 100.811L158.387 104.357C160.037 103.496 161.912 103.048 164.054 103.048V99.048ZM156.521 100.819C154.277 102.016 152.492 103.726 151.196 105.919L154.64 107.953C155.563 106.391 156.808 105.2 158.403 104.349L156.521 100.819ZM151.179 105.948C149.924 108.158 149.318 110.638 149.318 113.336H153.318C153.318 111.255 153.779 109.469 154.657 107.924L151.179 105.948ZM149.318 113.336C149.318 116.034 149.924 118.514 151.179 120.724L154.657 118.748C153.779 117.203 153.318 115.417 153.318 113.336H149.318ZM151.196 120.753C152.488 122.939 154.263 124.662 156.491 125.9L158.434 122.404C156.822 121.508 155.567 120.288 154.64 118.719L151.196 120.753ZM156.537 125.925C158.813 127.112 161.332 127.688 164.054 127.688V123.688C161.912 123.688 160.037 123.24 158.387 122.379L156.537 125.925ZM223.417 100.792L222.003 102.206L222.015 102.218L222.028 102.23L223.417 100.792ZM227.193 131V133H229.193V131H227.193ZM222.649 131H220.649V133H222.649V131ZM220.025 103.928L218.578 105.308L218.578 105.308L220.025 103.928ZM203.897 104.44L202.469 103.04L202.469 103.04L203.897 104.44ZM200.761 131V133H202.761V131H200.761ZM196.217 131H194.217V133H196.217V131ZM196.217 97.336V95.336H194.217V97.336H196.217ZM200.569 97.336H202.569V95.336H200.569V97.336ZM200.569 103.544H198.569V110.722L202.281 104.578L200.569 103.544ZM205.689 98.808L206.598 100.59L206.604 100.586L206.611 100.583L205.689 98.808ZM213.369 99.08C217.18 99.08 219.979 100.182 222.003 102.206L224.831 99.3778C221.906 96.4525 218.006 95.08 213.369 95.08V99.08ZM222.028 102.23C224.036 104.17 225.193 107.137 225.193 111.48H229.193C229.193 106.436 227.833 102.278 224.807 99.3536L222.028 102.23ZM225.193 111.48V131H229.193V111.48H225.193ZM227.193 129H222.649V133H227.193V129ZM224.649 131V111.928H220.649V131H224.649ZM224.649 111.928C224.649 108.113 223.693 104.877 221.473 102.548L218.578 105.308C219.856 106.649 220.649 108.745 220.649 111.928H224.649ZM221.473 102.548C219.248 100.214 216.166 99.176 212.537 99.176V103.176C215.394 103.176 217.304 103.973 218.578 105.308L221.473 102.548ZM212.537 99.176C208.483 99.176 205.049 100.408 202.469 103.04L205.325 105.84C207.012 104.12 209.338 103.176 212.537 103.176V99.176ZM202.469 103.04C199.919 105.642 198.761 109.164 198.761 113.336H202.761C202.761 109.913 203.694 107.505 205.326 105.84L202.469 103.04ZM198.761 113.336V131H202.761V113.336H198.761ZM200.761 129H196.217V133H200.761V129ZM198.217 131V97.336H194.217V131H198.217ZM196.217 99.336H200.569V95.336H196.217V99.336ZM198.569 97.336V103.544H202.569V97.336H198.569ZM202.281 104.578C203.321 102.856 204.747 101.533 206.598 100.59L204.781 97.0262C202.28 98.3012 200.292 100.136 198.857 102.51L202.281 104.578ZM206.611 100.583C208.502 99.6009 210.737 99.08 213.369 99.08V95.08C210.199 95.08 207.314 95.7111 204.768 97.033L206.611 100.583Z" fill="#E6E7E8"/>
</svg>
